# xmcd
#
# Track frame offsets:
#	150
#	13732
#	24292
#	38750
#	51883
#	66015
#	80514
#	95672
#	111884
#	123735
#	138329
#	152353
#
# Disc length: 2180 seconds
#
# Revision: 0
# Processed by: cddbd v1.5.2PL0 Copyright (c) Steve Scherf et al.
# Submitted via: audiograbber 1.83.01
#
DISCID=9608820c
DTITLE=VICENTE FERNANDEZ - EXITOS
DYEAR=1900
DGENRE=KARAOKE
TTITLE0=BOHEMIO DE AFICION
TTITLE1=SI TE VAS NO HAY LIO
TTITLE2=SENORA DE TAL
TTITLE3=TOMATE UNA COPA
TTITLE4=YO QUIERO SABER DE TI
TTITLE5=NOS ESTORBO LA ROPA
TTITLE6=QUE SEPAN TODOS
TTITLE7=GOLONDRINA PRESUMIDA
TTITLE8=QUE NO TE EXTRANE
TTITLE9=SUBLIME MUJER
TTITLE10=SANGRE CALIENTE
TTITLE11=BORRACHO TE RECUERDO
EXTD=
EXTT0=
EXTT1=
EXTT2=
EXTT3=
EXTT4=
EXTT5=
EXTT6=
EXTT7=
EXTT8=
EXTT9=
EXTT10=
EXTT11=
PLAYORDER=
